<svg aria-hidden="true" style="position: absolute; width: 0; height: 0; overflow: hidden;" version="1.1" xmlns="http://www.w3.org/2000/svg" xmlns:xlink="http://www.w3.org/1999/xlink">
<defs>
<symbol id="icon-close" viewBox="0 0 32 32">
<path stroke-linejoin="round" stroke-linecap="round" stroke-miterlimit="4" stroke-width="3.2" d="M24 8l-16 16"></path>
<path stroke-linejoin="round" stroke-linecap="round" stroke-miterlimit="4" stroke-width="3.2" d="M8 8l16 16"></path>
</symbol>
<symbol id="icon-Defoult2" viewBox="0 0 32 32">
<path d="M32 3.223l-3.223-3.223-12.777 12.777-12.777-12.777-3.223 3.223 12.777 12.777-12.777 12.777 3.223 3.223 12.777-12.777 12.777 12.777 3.223-3.223-12.777-12.777 12.777-12.777z"></path>
</symbol>
<symbol id="icon-logo" viewBox="0 0 346 32">
<path d="M29.082 0.314h-4.010c-1.237 0-2.24 0.982-2.24 2.195v3.93c0 1.213 1.003 2.195 2.24 2.195h4.010c1.238 0 2.24-0.982 2.24-2.195v-3.93c0-1.213-1.002-2.195-2.24-2.195zM6.73 23.040h-4.317c-1.333 0-2.413 0.982-2.413 2.195v3.93c0 1.213 1.080 2.195 2.413 2.195h4.317c1.333 0 2.413-0.982 2.413-2.195v-3.93c0-1.213-1.080-2.195-2.413-2.195zM6.25 11.582h-4.010c-1.237 0-2.24 0.982-2.24 2.195v3.928c0 1.213 1.003 2.197 2.24 2.197h4.010c1.237 0 2.24-0.984 2.24-2.197v-3.928c0-1.213-1.003-2.195-2.24-2.195zM17.766 22.978h-4.010c-1.237 0-2.24 0.984-2.24 2.195v3.93c0 1.213 1.003 2.195 2.24 2.195h4.010c1.237 0 2.24-0.982 2.24-2.195v-3.93c0-1.211-1.003-2.195-2.24-2.195zM6.25 0.086h-4.010c-1.237 0-2.24 0.982-2.24 2.195v3.93c0 1.213 1.003 2.195 2.24 2.195h4.010c1.237 0 2.24-0.982 2.24-2.195v-3.93c0-1.213-1.003-2.195-2.24-2.195zM18.075 11.696h-4.008c-1.238 0-2.24 0.984-2.24 2.197v3.93c0 1.213 1.002 2.195 2.24 2.195h4.008c1.238 0 2.24-0.982 2.24-2.195v-3.93c0-1.213-1.002-2.195-2.24-2.195zM29.333 22.978h-4.010c-1.237 0-2.24 0.984-2.24 2.195v3.93c0 1.213 1.003 2.195 2.24 2.195h4.010c1.238 0 2.24-0.982 2.24-2.195v-3.93c0-1.211-1.002-2.195-2.24-2.195zM17.59 0.224h-4.010c-1.237 0-2.24 0.982-2.24 2.195v3.93c0 1.211 1.003 2.195 2.24 2.195h4.010c1.237 0 2.24-0.984 2.24-2.197v-3.928c0-1.213-1.003-2.195-2.24-2.195zM29.043 11.926h-4.010c-1.237 0-2.24 0.982-2.24 2.195v3.928c0 1.213 1.003 2.197 2.24 2.197h4.010c1.238 0 2.24-0.984 2.24-2.197v-3.928c0-1.213-1.002-2.195-2.24-2.195zM59.112 30.224c-7.749 0-12.89-5.227-12.89-13.37 0-7.965 5.069-13.298 12.706-13.298 6.427 0 10.944 3.662 11.605 9.173h-5.325c-0.514-3.165-2.974-4.942-6.28-4.942-4.627 0-7.381 3.627-7.381 9.067 0 5.973 3.085 9.136 7.565 9.136 3.893 0 6.39-2.131 6.646-5.331v-0.357h-7.16v-3.982h12.118v3.272c-0.221 6.365-4.848 10.63-11.605 10.63zM73.926 29.867v-25.955h12.89c6.574 0 9.181 3.093 9.181 7.573 0 4.018-2.938 5.938-6.352 6.4v0.107c2.203 0.533 3.195 1.707 4.112 4.018 1.176 2.915 1.36 6.4 2.864 7.645v0.213h-5.875c-1.248-1.21-1.542-5.013-2.203-7.325-0.661-2.382-2.093-2.666-4.774-2.666h-4.699v9.99h-5.142zM79.069 15.752h7.197c3.011 0 4.406-1.707 4.406-3.912 0-2.416-1.725-3.803-4.406-3.803h-7.197v7.715zM99.411 29.867v-25.955h18.325v4.125h-13.184v6.186h11.899v4.125h-11.898v7.29h13.366v4.23h-18.509zM121.49 29.867v-25.955h18.325v4.125h-13.184v6.186h11.899v4.125h-11.899v7.29h13.37v4.23h-18.512zM143.568 29.867v-25.955h6.243l8.886 14.328c2.717 4.338 3.048 5.76 3.048 5.76h0.11l-0.074-20.088h5.141v25.955h-6.28l-9.216-14.755c-2.094-3.342-2.645-5.37-2.645-5.37h-0.074v20.125h-5.141zM170.79 29.867v-5.262h5.362v5.264h-5.362zM180.014 29.867v-25.955h5.141v10.382h12.302v-10.384h5.141v25.957h-5.141v-11.45h-12.302v11.45h-5.141zM204.795 29.867l10.283-25.955h5.581l10.43 25.955h-5.509l-2.166-5.973h-11.128l-2.166 5.973h-5.325zM213.755 19.77h8.19l-2.387-6.4c-1.653-4.73-1.69-5.582-1.69-5.582h-0.074s0 0.853-1.653 5.582l-2.387 6.4zM233.278 29.867v-25.955h12.89c6.574 0 9.181 3.093 9.181 7.573 0 4.018-2.938 5.938-6.354 6.4v0.107c2.205 0.533 3.195 1.707 4.114 4.018 1.176 2.915 1.358 6.4 2.864 7.645v0.213h-5.875c-1.248-1.21-1.542-5.013-2.203-7.325-0.661-2.382-2.093-2.666-4.774-2.666h-4.701v9.99h-5.141zM238.419 15.752h7.198c3.011 0 4.406-1.707 4.406-3.912 0-2.416-1.726-3.803-4.406-3.803h-7.198v7.715zM264.214 29.867l-9.842-25.955h5.509s5.325 14.542 5.875 16.32c0.882 2.845 1.285 4.302 1.285 4.302h0.074c-0.037 0 0.368-1.458 1.285-4.304 0.589-1.776 5.693-16.32 5.693-16.32h5.325l-9.475 25.957h-5.728zM281.523 29.867v-25.955h18.325v4.125h-13.184v6.186h11.898v4.125h-11.898v7.29h13.368v4.23h-18.509zM312.795 30.224c-6.83 0-10.944-3.592-10.944-8.926h5.875c-0.074 3.024 1.984 4.694 5.069 4.694 3.267 0 4.81-1.245 4.81-3.094 0-1.848-1.322-2.63-6.022-3.875-4.296-1.136-8.997-2.488-8.997-7.822 0-4.23 3.819-7.643 9.842-7.643 6.206 0 10.173 3.376 10.173 8.142h-5.693c-0.037-2.525-1.798-3.912-4.48-3.912-2.606 0-4.333 1.28-4.333 2.987 0 2.026 1.432 2.666 5.178 3.696 5.546 1.494 10.026 2.099 10.026 7.894 0 4.658-4.37 7.858-10.502 7.858zM331.669 29.867v-21.723h-8.115v-4.232h21.336v4.23h-8.080v21.725h-5.141z"></path>
</symbol>

<symbol id="icon-burger" viewBox="0 0 32 32">
<path stroke-linejoin="round" stroke-linecap="round" stroke-miterlimit="4" stroke-width="3.2" d="M5.334 8h21.333M5.334 16h10.666M5.334 24h21.333"></path>
</symbol>

<symbol id="icon-close" viewBox="0 0 32 32">
<path stroke-linejoin="round" stroke-linecap="round" stroke-miterlimit="4" stroke-width="3.2" d="M24 8l-16 16M8 8l16 16"></path>
</symbol>

<symbol id="icon-slash-order" viewBox="0 0 16 32">
<path d="M14.392 0.58l-8.436 31.356h-4.060l8.434-31.358h4.060z"></path>
</symbol>

<symbol id="icon-slash-footer" viewBox="0 0 15 32">
<path d="M13.299 1.734l-8 29.732h-3.23l7.998-29.734h3.232z"></path>
</symbol>

<symbol id="icon-simbol" viewBox="0 0 386 32">
<path d="M9.154 15.232c0-1.514 0.364-2.885 1.095-4.116 0.724-1.232 1.718-2.233 2.906-2.943l0.038-0.021c1.134-0.689 2.505-1.097 3.971-1.097 0.051 0 0.102 0 0.152 0.001l-0.008-0c0.047-0.001 0.102-0.002 0.157-0.002 1.271 0 2.469 0.314 3.52 0.868l-0.041-0.020c1.115 0.566 2.031 1.334 2.75 2.306 0.731 0.975 1.182 2.078 1.346 3.308h-3.658c-0.177-0.896-0.695-1.647-1.411-2.127l-0.012-0.008c-0.72-0.529-1.625-0.847-2.603-0.847-0.018 0-0.035 0-0.053 0l0.003-0c-0.844 0-1.627 0.212-2.346 0.635-0.705 0.415-1.277 0.987-1.679 1.672l-0.012 0.022c-0.423 0.704-0.64 1.492-0.655 2.363 0.012 0.847 0.231 1.63 0.655 2.348 0.421 0.704 0.985 1.268 1.691 1.691 0.719 0.411 1.502 0.615 2.346 0.615 0.987 0.012 1.826-0.256 2.521-0.807 0.704-0.566 1.147-1.28 1.327-2.154h3.633c-0.153 1.231-0.576 2.334-1.268 3.308-0.693 0.956-1.574 1.732-2.593 2.286l-0.041 0.020c-1.066 0.566-2.257 0.847-3.579 0.847-0.024 0-0.053 0-0.081 0-1.487 0-2.88-0.407-4.071-1.116l0.037 0.020c-1.222-0.728-2.214-1.722-2.921-2.906l-0.021-0.038c-0.689-1.155-1.096-2.547-1.096-4.035 0-0.028 0-0.055 0-0.083l-0 0.004zM17.174 30.001c-0.023 0-0.050 0-0.077 0-2.044 0-3.988-0.426-5.748-1.193l0.093 0.036c-1.828-0.793-3.39-1.862-4.713-3.172l0.001 0.001c-1.32-1.319-2.395-2.881-3.152-4.615l-0.038-0.097c-0.718-1.661-1.135-3.595-1.135-5.627 0-0.037 0-0.075 0-0.112l-0 0.006c0.020-4.078 1.677-7.766 4.347-10.442l-0 0c1.315-1.318 2.877-2.389 4.611-3.136l0.096-0.037c1.657-0.73 3.589-1.155 5.621-1.155 0.032 0 0.063 0 0.095 0l-0.005-0c0.032-0 0.069-0 0.107-0 2.040 0 3.981 0.426 5.738 1.193l-0.092-0.036c1.78 0.756 3.345 1.812 4.692 3.17 1.325 1.312 2.396 2.877 3.137 4.617l0.036 0.095c0.768 1.782 1.154 3.692 1.154 5.733 0.001 0.057 0.001 0.123 0.001 0.19 0 2.002-0.418 3.907-1.171 5.631l0.035-0.091c-0.784 1.832-1.856 3.396-3.175 4.711l-0 0c-1.318 1.316-2.881 2.386-4.615 3.136l-0.096 0.037c-1.664 0.73-3.603 1.155-5.641 1.155-0.037 0-0.075-0-0.112-0l0.006 0zM17.174 26.27c1.538 0 2.974-0.288 4.308-0.866 1.372-0.589 2.545-1.386 3.539-2.364l-0.001 0.001c1.984-1.973 3.213-4.705 3.213-7.723 0-0.030-0-0.060-0-0.089l0 0.005c0-1.538-0.288-2.976-0.866-4.308-0.595-1.367-1.399-2.535-2.385-3.52l-0-0c-0.977-0.989-2.137-1.793-3.427-2.358l-0.071-0.028c-1.246-0.548-2.698-0.867-4.225-0.867-0.029 0-0.058 0-0.087 0l0.004-0c-0.020-0-0.043-0-0.066-0-1.52 0-2.965 0.319-4.273 0.893l0.068-0.027c-2.665 1.166-4.745 3.253-5.875 5.85l-0.028 0.073c-0.548 1.243-0.867 2.692-0.867 4.215 0 0.026 0 0.051 0 0.077l-0-0.004c-0.001 0.048-0.001 0.104-0.001 0.161 0 1.484 0.305 2.896 0.855 4.179l-0.026-0.069c0.578 1.334 1.371 2.506 2.385 3.52 1.026 1.012 2.206 1.807 3.537 2.383 1.243 0.548 2.692 0.867 4.215 0.867 0.026 0 0.053-0 0.079-0l-0.004 0zM48.807 29.922c-2.59 0-4.864-0.596-6.826-1.787-1.95-1.194-3.476-2.885-4.578-5.078-1.088-2.206-1.634-4.815-1.634-7.828 0-3.052 0.551-5.671 1.654-7.865 1.115-2.206 2.641-3.897 4.578-5.076 1.935-1.194 4.14-1.79 6.614-1.79 1.538 0 2.974 0.231 4.308 0.692 2.634 0.876 4.78 2.623 6.145 4.892l0.028 0.051c0.692 1.142 1.159 2.412 1.403 3.808h-4.423c-0.268-0.872-0.634-1.631-1.096-2.321l0.020 0.032c-0.882-1.332-2.178-2.328-3.702-2.812l-0.049-0.013c-0.75-0.244-1.612-0.385-2.507-0.385-0.038 0-0.075 0-0.112 0.001l0.006-0c-1.615 0-3.072 0.416-4.367 1.25-1.295 0.82-2.319 2.031-3.077 3.633-0.756 1.602-1.132 3.564-1.132 5.883 0 2.321 0.377 4.283 1.132 5.886 0.758 1.602 1.797 2.821 3.116 3.655 1.322 0.82 2.821 1.231 4.5 1.231 1.551 0 2.905-0.315 4.059-0.943 1.152-0.64 2.050-1.538 2.69-2.693s0.96-2.518 0.96-4.096l1.137 0.212h-8.192v-3.577h11.269v3.269c0 2.412-0.514 4.495-1.538 6.252-1.007 1.739-2.447 3.128-4.175 4.046l-0.057 0.027c-1.794 0.96-3.845 1.442-6.154 1.442zM64.231 29.538v-21.499h4.020v3.441h0.229c0.399-1.154 1.090-2.063 2.078-2.732 0.926-0.637 2.072-1.017 3.307-1.017 0.027 0 0.055 0 0.082 0.001l-0.004-0c0.256 0 0.559 0.012 0.903 0.037 0.359 0.012 0.647 0.032 0.866 0.059v4c-0.658-0.146-1.414-0.23-2.19-0.231h-0.001c-0.99 0-1.873 0.212-2.656 0.635-0.768 0.409-1.378 0.98-1.826 1.711-0.436 0.719-0.655 1.551-0.655 2.501v13.095h-4.153zM86.213 29.982c-2.105 0-3.924-0.455-5.465-1.366-1.535-0.918-2.752-2.229-3.533-3.794l-0.024-0.053c-0.82-1.666-1.231-3.609-1.231-5.826 0-2.206 0.404-4.148 1.214-5.826 0.82-1.679 1.967-2.986 3.441-3.924 1.487-0.948 3.232-1.423 5.231-1.423 1.218 0 2.398 0.199 3.54 0.596 1.14 0.399 2.166 1.026 3.077 1.886s1.627 1.974 2.151 3.348c0.542 1.371 0.81 3.025 0.81 4.96v1.502h-17.098v-3.138h14.942l-1.94 1.039c0-1.322-0.207-2.486-0.615-3.5-0.38-0.974-1.018-1.779-1.83-2.352l-0.016-0.011c-0.81-0.578-1.814-0.869-3.020-0.869s-2.238 0.29-3.097 0.866c-0.838 0.575-1.5 1.349-1.928 2.255l-0.015 0.034c-0.424 0.89-0.672 1.934-0.672 3.037 0 0.027 0 0.054 0 0.081l-0-0.004v2.137c0 1.474 0.256 2.722 0.768 3.749 0.514 1.026 1.226 1.807 2.134 2.346 0.923 0.539 1.994 0.807 3.212 0.807 0.795 0 1.514-0.116 2.154-0.345 0.66-0.231 1.226-0.586 1.695-1.040l-0.001 0.001c0.473-0.463 0.832-1.034 1.076-1.713l3.963 0.751c-0.32 1.154-0.886 2.166-1.694 3.040-0.807 0.871-1.826 1.551-3.057 2.038-1.218 0.473-2.609 0.711-4.175 0.711zM107.596 29.982c-2.102 0-3.924-0.455-5.462-1.366-1.535-0.918-2.752-2.229-3.533-3.794l-0.024-0.053c-0.82-1.666-1.231-3.609-1.231-5.826 0-2.206 0.404-4.148 1.211-5.826 0.82-1.679 1.969-2.986 3.441-3.924 1.489-0.948 3.232-1.423 5.233-1.423 1.216 0 2.395 0.199 3.537 0.596 1.142 0.399 2.166 1.026 3.077 1.886s1.627 1.974 2.154 3.348c0.539 1.371 0.807 3.025 0.807 4.96v1.502h-17.095v-3.138h14.942l-1.942 1.039c0-1.322-0.204-2.486-0.615-3.5-0.38-0.974-1.018-1.779-1.83-2.352l-0.016-0.011c-0.807-0.578-1.814-0.869-3.020-0.869s-2.235 0.29-3.094 0.866c-0.839 0.575-1.502 1.348-1.93 2.255l-0.015 0.034c-0.424 0.89-0.672 1.934-0.672 3.037 0 0.027 0 0.054 0 0.081l-0-0.004v2.137c0 1.474 0.256 2.722 0.77 3.749 0.512 1.026 1.223 1.807 2.134 2.346 0.923 0.539 1.994 0.807 3.212 0.807 0.795 0 1.511-0.116 2.154-0.345 0.659-0.232 1.224-0.586 1.692-1.040l-0.001 0.001c0.475-0.463 0.834-1.034 1.078-1.713l3.961 0.751c-0.32 1.154-0.886 2.166-1.694 3.040-0.807 0.871-1.826 1.551-3.057 2.038-1.218 0.473-2.609 0.711-4.172 0.711zM123.884 16.788v12.751h-4.153v-21.499h4.037v3.537h0.288c0.487-1.167 1.25-2.090 2.289-2.769 1.039-0.692 2.373-1.039 4-1.039 1.462 0 2.737 0.308 3.828 0.923 1.115 0.624 1.995 1.554 2.542 2.676l0.016 0.036c0.615 1.206 0.923 2.698 0.923 4.48v13.654h-4.155v-13.154c0-1.551-0.409-2.769-1.231-3.653-0.82-0.898-1.935-1.346-3.345-1.346-0.96 0-1.826 0.219-2.597 0.655-0.756 0.421-1.354 1.031-1.787 1.826-0.436 0.795-0.655 1.77-0.655 2.922zM150.73 29.538v-28.652h4.327v12.46h14.27v-12.463h4.327v28.655h-4.327v-12.48h-14.27v12.48h-4.327zM184.192 30.001c-0.037 0.001-0.081 0.001-0.125 0.001-1.291 0-2.517-0.277-3.623-0.774l0.056 0.022c-1.082-0.497-1.969-1.26-2.6-2.208l-0.014-0.023c-0.64-0.975-0.962-2.161-0.962-3.559 0-1.218 0.231-2.21 0.692-2.978 0.475-0.783 1.108-1.406 1.905-1.866 0.764-0.447 1.65-0.804 2.588-1.026l0.066-0.013c0.975-0.231 1.974-0.411 3.001-0.542 1.295-0.138 2.338-0.261 3.134-0.364 0.795-0.101 1.371-0.261 1.73-0.48 0.372-0.231 0.559-0.596 0.559-1.095v-0.098c0-1.216-0.345-2.159-1.039-2.826-0.679-0.665-1.694-0.999-3.040-0.999-1.396 0-2.506 0.308-3.326 0.923-0.807 0.603-1.366 1.29-1.674 2.058l-3.941-0.903c0.473-1.307 1.159-2.361 2.058-3.153 0.911-0.81 1.947-1.398 3.114-1.772 1.089-0.353 2.343-0.556 3.644-0.556 0.017 0 0.034 0 0.051 0h-0.003c0.862 0 1.77 0.103 2.732 0.308 0.96 0.192 1.863 0.559 2.71 1.098 0.862 0.524 1.558 1.28 2.097 2.267 0.537 0.987 0.807 2.265 0.807 3.828v14.27h-4.096v-2.942h-0.155c-0.321 0.612-0.726 1.132-1.207 1.571l-0.004 0.004c-0.539 0.527-1.231 0.96-2.078 1.31-0.844 0.345-1.863 0.517-3.057 0.517zM185.095 26.654c1.167 0 2.161-0.224 2.981-0.672 0.787-0.431 1.425-1.045 1.873-1.787l0.012-0.022c0.411-0.675 0.654-1.49 0.655-2.363v-2.792c-0.155 0.14-0.443 0.276-0.866 0.404-0.392 0.122-0.879 0.235-1.376 0.316l-0.067 0.009c-0.539 0.091-1.063 0.172-1.575 0.251l-1.29 0.155c-0.807 0.113-1.546 0.295-2.21 0.537-0.667 0.231-1.206 0.578-1.617 1.039-0.396 0.448-0.596 1.046-0.596 1.79 0 1.039 0.384 1.822 1.154 2.346 0.768 0.524 1.743 0.788 2.922 0.788zM198.806 29.538v-21.499h4.020v3.441h0.231c0.399-1.154 1.090-2.063 2.078-2.732 0.926-0.637 2.072-1.017 3.307-1.017 0.027 0 0.055 0 0.082 0.001l-0.004-0c0.256 0 0.559 0.012 0.903 0.037 0.359 0.012 0.647 0.032 0.866 0.059v4c-0.658-0.146-1.414-0.23-2.19-0.231h-0.001c-0.99 0-1.873 0.212-2.658 0.635-0.768 0.409-1.376 0.98-1.824 1.711-0.436 0.719-0.655 1.551-0.655 2.501v13.095h-4.153zM231.311 8.039l-7.771 21.499h-4.502l-7.788-21.499h4.48l5.465 16.576h0.229l5.423-16.576h4.463zM242.137 29.982c-2.102 0-3.924-0.455-5.462-1.366-1.535-0.919-2.752-2.229-3.533-3.794l-0.024-0.053c-0.82-1.666-1.231-3.609-1.231-5.826 0-2.206 0.404-4.148 1.211-5.826 0.822-1.679 1.969-2.986 3.444-3.924 1.487-0.948 3.23-1.423 5.231-1.423 1.218 0 2.398 0.199 3.537 0.596 1.142 0.399 2.166 1.026 3.077 1.886s1.63 1.974 2.154 3.348c0.539 1.371 0.807 3.025 0.807 4.96v1.502h-17.095v-3.138h14.942l-1.942 1.039c0-1.322-0.204-2.486-0.615-3.5-0.379-0.975-1.017-1.779-1.83-2.352l-0.016-0.011c-0.807-0.578-1.814-0.869-3.018-0.869-1.206 0-2.24 0.29-3.097 0.866-0.839 0.575-1.502 1.348-1.93 2.255l-0.015 0.034c-0.424 0.89-0.672 1.934-0.672 3.037 0 0.027 0 0.054 0 0.081l-0-0.004v2.137c0 1.474 0.258 2.722 0.77 3.749s1.223 1.807 2.134 2.346c0.923 0.539 1.994 0.807 3.212 0.807 0.795 0 1.511-0.116 2.154-0.345 0.66-0.232 1.224-0.586 1.692-1.040l-0.001 0.001c0.475-0.463 0.834-1.034 1.078-1.713l3.961 0.751c-0.32 1.154-0.884 2.166-1.691 3.040-0.807 0.871-1.829 1.551-3.060 2.038-1.216 0.473-2.609 0.711-4.172 0.711zM270.348 13.307l-3.788 0.655c-0.291-0.791-0.759-1.458-1.36-1.976l-0.006-0.005c-0.652-0.603-1.634-0.903-2.942-0.903-1.179 0-2.166 0.271-2.961 0.807-0.783 0.527-1.174 1.199-1.174 2.018-0.001 0.019-0.001 0.042-0.001 0.065 0 0.676 0.306 1.281 0.788 1.683l0.003 0.003c0.537 0.45 1.391 0.81 2.558 1.078l3.441 0.768c1.962 0.45 3.429 1.157 4.404 2.117s1.462 2.191 1.462 3.692c0 1.295-0.372 2.449-1.115 3.461-0.743 0.999-1.775 1.79-3.097 2.363-1.319 0.566-2.846 0.849-4.576 0.849-2.41 0-4.372-0.519-5.886-1.558s-2.442-2.501-2.789-4.384l4.020-0.615c0.256 1.051 0.775 1.846 1.558 2.383 0.795 0.542 1.819 0.81 3.077 0.81 1.359 0 2.449-0.29 3.269-0.866 0.834-0.576 1.25-1.275 1.25-2.097 0-1.359-1.014-2.274-3.040-2.75l-3.633-0.807c-2.014-0.46-3.5-1.186-4.463-2.174-0.948-0.999-1.423-2.255-1.423-3.769 0-1.27 0.352-2.385 1.058-3.348 0.719-0.96 1.698-1.703 2.942-2.23 1.258-0.537 2.686-0.807 4.288-0.807 2.334 0 4.162 0.507 5.482 1.519 1.334 1.014 2.218 2.353 2.654 4.020zM283.695 8.039v3.365h-11.732v-3.365h11.732zM275.099 2.922h4.172v20.308c0 0.99 0.204 1.713 0.615 2.174 0.411 0.45 1.071 0.674 1.982 0.674 0.522-0.008 1.026-0.064 1.514-0.164l-0.052 0.009 0.788 3.463c-0.862 0.278-1.854 0.44-2.883 0.443h-0.002c-1.858 0-3.345-0.522-4.46-1.561-1.118-1.051-1.674-2.447-1.674-4.192v-21.154zM295.385 29.538v-3.116l9.694-10.075c1.024-1.078 1.871-2.026 2.538-2.848 0.582-0.685 1.088-1.462 1.491-2.298l0.028-0.065c0.347-0.746 0.519-1.534 0.519-2.368 0-0.96-0.224-1.787-0.674-2.479-0.45-0.69-1.069-1.236-1.8-1.586l-0.026-0.011c-0.735-0.352-1.598-0.557-2.509-0.557-0.037 0-0.074 0-0.111 0.001l0.006-0c-1.026 0-1.918 0.212-2.673 0.635-0.754 0.411-1.358 1.014-1.758 1.745l-0.011 0.023c-0.411 0.758-0.615 1.649-0.615 2.673h-4.116c0-1.743 0.399-3.269 1.194-4.578 0.808-1.298 1.929-2.332 3.259-3.014l0.046-0.022c1.41-0.729 3.001-1.095 4.77-1.095 1.807 0 3.397 0.359 4.768 1.078 1.374 0.716 2.444 1.691 3.212 2.922 0.768 1.218 1.154 2.597 1.154 4.135 0 1.063-0.199 2.102-0.596 3.114-0.386 1.014-1.071 2.149-2.058 3.404-0.975 1.243-2.334 2.745-4.079 4.5l-5.691 5.962v0.231h12.884v3.69h-18.846zM327.847 29.922c-2.206 0-4.098-0.576-5.674-1.73-1.566-1.154-2.764-2.821-3.596-4.999-0.82-2.191-1.231-4.847-1.231-7.963 0-3.102 0.416-5.748 1.25-7.941 0.832-2.206 2.031-3.884 3.596-5.039 1.575-1.167 3.461-1.748 5.654-1.748 2.203 0 4.089 0.581 5.652 1.748 1.578 1.154 2.777 2.833 3.596 5.039 0.834 2.191 1.25 4.839 1.25 7.943 0 3.114-0.411 5.767-1.231 7.961-0.82 2.178-2.014 3.845-3.577 4.999s-3.461 1.73-5.691 1.73zM327.847 26.23c1.344 0 2.479-0.428 3.402-1.287 0.923-0.862 1.63-2.11 2.117-3.751 0.487-1.652 0.731-3.641 0.731-5.959 0-2.334-0.244-4.322-0.731-5.962-0.487-1.654-1.194-2.912-2.117-3.771-0.923-0.871-2.058-1.305-3.402-1.305-1.989 0-3.527 0.965-4.618 2.902-1.076 1.922-1.615 4.635-1.615 8.133 0 2.321 0.244 4.308 0.731 5.962 0.487 1.642 1.194 2.892 2.114 3.751 0.938 0.859 2.065 1.287 3.387 1.287zM341.691 29.538v-3.116l9.694-10.075c1.026-1.078 1.871-2.026 2.538-2.848 0.582-0.685 1.088-1.462 1.491-2.298l0.028-0.065c0.347-0.746 0.519-1.534 0.519-2.368 0-0.96-0.224-1.787-0.672-2.479-0.451-0.69-1.070-1.235-1.8-1.586l-0.027-0.011c-0.736-0.352-1.6-0.557-2.512-0.557-0.037 0-0.073 0-0.11 0.001l0.005-0c-1.024 0-1.915 0.212-2.673 0.635-0.753 0.411-1.357 1.014-1.756 1.745l-0.011 0.023c-0.411 0.758-0.615 1.649-0.615 2.673h-4.116c0-1.743 0.396-3.269 1.191-4.578 0.808-1.299 1.93-2.334 3.262-3.016l0.046-0.022c1.41-0.729 3.001-1.095 4.768-1.095 1.809 0 3.399 0.359 4.77 1.078 1.33 0.683 2.416 1.677 3.19 2.889l0.020 0.033c0.77 1.218 1.154 2.597 1.154 4.135 0 1.063-0.197 2.102-0.596 3.114-0.384 1.014-1.071 2.149-2.058 3.404-0.975 1.243-2.334 2.745-4.076 4.5l-5.694 5.962v0.231h12.886v3.692h-18.848zM374.174 29.922c-1.937 0-3.655-0.327-5.154-0.98-1.499-0.667-2.686-1.59-3.557-2.769-0.841-1.133-1.357-2.551-1.386-4.089l-0-0.007h4.347c0.064 0.847 0.352 1.575 0.864 2.191 0.514 0.615 1.186 1.098 2.021 1.442 0.847 0.335 1.787 0.5 2.826 0.5 1.13 0 2.129-0.197 3.001-0.596 0.831-0.364 1.519-0.923 2.028-1.62l0.010-0.014c0.5-0.704 0.751-1.519 0.751-2.442 0-0.96-0.244-1.807-0.731-2.538-0.487-0.743-1.199-1.322-2.134-1.73-0.938-0.411-2.065-0.615-3.385-0.615h-2.444v-3.54h2.444c0.038 0.001 0.083 0.001 0.127 0.001 0.965 0 1.88-0.213 2.701-0.594l-0.040 0.017c0.807-0.386 1.435-0.918 1.883-1.598 0.463-0.679 0.692-1.479 0.692-2.402 0-0.886-0.197-1.654-0.596-2.309-0.4-0.665-0.97-1.192-1.651-1.528l-0.023-0.010c-0.716-0.369-1.563-0.556-2.538-0.556-0.935 0-1.807 0.165-2.614 0.5-0.807 0.332-1.47 0.812-1.982 1.442-0.5 0.615-0.763 1.364-0.788 2.25h-4.175c0.039-1.551 0.487-2.91 1.346-4.076 0.871-1.182 2.026-2.097 3.463-2.752 1.37-0.632 2.972-1 4.66-1 0.052 0 0.103 0 0.155 0.001l-0.008-0c1.831 0 3.417 0.359 4.748 1.078 1.295 0.661 2.351 1.63 3.097 2.813l0.019 0.032c0.731 1.179 1.095 2.466 1.095 3.865 0 1.63-0.448 3.001-1.346 4.116-0.896 1.103-2.095 1.854-3.594 2.25v0.212c1.895 0.295 3.365 1.051 4.404 2.27 1.051 1.218 1.575 2.732 1.575 4.539 0 1.575-0.441 2.986-1.327 4.229-0.871 1.246-2.070 2.225-3.596 2.944-1.511 0.716-3.244 1.076-5.191 1.076z"></path>
</symbol>

<symbol id="favicon" viewBox="0 0 32 32">
<path fill="#576f35" style="fill: var(--color1, #576f35)" d="M29.082 0.314h-4.010c-1.237 0-2.24 0.983-2.24 2.195v3.929c0 1.212 1.003 2.195 2.24 2.195h4.010c1.237 0 2.24-0.983 2.24-2.195v-3.929c0-1.212-1.003-2.195-2.24-2.195z"></path>
<path fill="#576f35" style="fill: var(--color1, #576f35)" d="M6.73 23.040h-4.318c-1.332 0-2.412 0.983-2.412 2.195v3.929c0 1.212 1.080 2.195 2.412 2.195h4.318c1.332 0 2.412-0.983 2.412-2.195v-3.929c0-1.212-1.080-2.195-2.412-2.195z"></path>
<path fill="#576f35" style="fill: var(--color1, #576f35)" d="M6.25 11.582h-4.009c-1.237 0-2.24 0.983-2.24 2.195v3.929c0 1.212 1.003 2.195 2.24 2.195h4.009c1.237 0 2.24-0.983 2.24-2.195v-3.929c0-1.212-1.003-2.195-2.24-2.195z"></path>
<path fill="#576f35" style="fill: var(--color1, #576f35)" d="M17.766 22.978h-4.009c-1.237 0-2.24 0.983-2.24 2.195l-0 3.929c0 1.212 1.003 2.196 2.241 2.196h4.009c1.237 0 2.24-0.983 2.24-2.196v-3.929c0-1.212-1.003-2.195-2.24-2.195z"></path>
<path fill="#576f35" style="fill: var(--color1, #576f35)" d="M6.25 0.086h-4.009c-1.237 0-2.24 0.983-2.24 2.195v3.929c0 1.212 1.003 2.195 2.24 2.195h4.009c1.237 0 2.24-0.983 2.24-2.195v-3.929c0-1.212-1.003-2.195-2.24-2.195z"></path>
<path fill="#576f35" style="fill: var(--color1, #576f35)" d="M18.076 11.697h-4.009c-1.237 0-2.24 0.983-2.24 2.195v3.929c0 1.212 1.003 2.195 2.24 2.195h4.009c1.237 0 2.24-0.983 2.24-2.195v-3.929c0-1.212-1.003-2.195-2.24-2.195z"></path>
<path fill="#576f35" style="fill: var(--color1, #576f35)" d="M29.333 22.978h-4.009c-1.237 0-2.24 0.983-2.24 2.195v3.929c0 1.212 1.003 2.196 2.24 2.196h4.009c1.237 0 2.24-0.983 2.24-2.196v-3.929c0-1.212-1.003-2.195-2.24-2.195z"></path>
<path fill="#576f35" style="fill: var(--color1, #576f35)" d="M17.591 0.224h-4.009c-1.237 0-2.24 0.983-2.24 2.195v3.929c0 1.212 1.003 2.195 2.24 2.195h4.009c1.237 0 2.24-0.984 2.24-2.196v-3.929c0-1.212-1.003-2.195-2.24-2.195z"></path>
<path fill="#576f35" style="fill: var(--color1, #576f35)" d="M29.044 11.926h-4.009c-1.237 0-2.24 0.983-2.24 2.195v3.929c0 1.212 1.003 2.195 2.24 2.195h4.009c1.237 0 2.24-0.983 2.24-2.195v-3.929c0-1.212-1.003-2.195-2.24-2.195z"></path>
</symbol>
</defs>
</svg>
